<svg width="512" height="512" xmlns="http://www.w3.org/2000/svg">
 <!--! Font Awesome Pro 6.1.1 by @fontawesome - https://fontawesome.com License - https://fontawesome.com/license (Commercial License) Copyright 2022 Fonticons, Inc. -->

 <g>
  <title>Layer 1</title>
  <path fill="#ffffff" id="svg_1" d="m310.3,97.25c-8,-3.5 -17.5,0.25 -21,8.5l-33.5,78.25c-22,0.3 -39.8,18 -39.8,40c0,22.12 17.88,40 40,40s40,-17.9 40,-40c0,-10.5 -4.25,-20 -11,-27.12l33.75,-78.63c3.55,-8.15 -0.35,-17.45 -8.45,-21zm137.7,-33.25l-56.23,0c-32.27,-39.09 -81.07,-64 -135.77,-64s-103.5,24.91 -135.8,64l-56.2,0c-35.25,0 -64,28.75 -64,64l0,320c0,35.25 28.75,64 64,64l384,0c35.25,0 64,-28.75 64,-64l0,-320c0,-35.25 -28.7,-64 -64,-64zm-192,240c-70.58,0 -128,-57.42 -128,-128s57.42,-128 128,-128c70.58,0 128,57.42 128,128s-57.4,128 -128,128z"/>
 </g>
</svg>