<svg width="207.628" height="207.628" xmlns="http://www.w3.org/2000/svg" xml:space="preserve" version="1.1">

 <g>
  <title>Layer 1</title>
  <circle fill="#ffffff" id="svg_1" r="45.868" cy="103.814" cx="103.814"/>
  <path fill="#ffffff" id="svg_2" d="m103.814,157.183c-29.427,0 -53.368,-23.941 -53.368,-53.368s23.941,-53.368 53.368,-53.368s53.368,23.941 53.368,53.368s-23.941,53.368 -53.368,53.368zm0,-91.737c-21.156,0 -38.368,17.212 -38.368,38.368s17.212,38.368 38.368,38.368s38.368,-17.212 38.368,-38.368s-17.212,-38.368 -38.368,-38.368z"/>
  <path fill="#ffffff" id="svg_3" d="m103.814,39.385c-4.142,0 -7.5,-3.358 -7.5,-7.5l0,-24.385c0,-4.142 3.358,-7.5 7.5,-7.5s7.5,3.358 7.5,7.5l0,24.385c0,4.142 -3.358,7.5 -7.5,7.5z"/>
  <path fill="#ffffff" id="svg_4" d="m103.814,207.628c-4.142,0 -7.5,-3.358 -7.5,-7.5l0,-24.385c0,-4.142 3.358,-7.5 7.5,-7.5s7.5,3.358 7.5,7.5l0,24.385c0,4.143 -3.358,7.5 -7.5,7.5z"/>
  <path fill="#ffffff" id="svg_5" d="m200.128,111.314l-24.385,0c-4.142,0 -7.5,-3.358 -7.5,-7.5s3.358,-7.5 7.5,-7.5l24.385,0c4.142,0 7.5,3.358 7.5,7.5s-3.357,7.5 -7.5,7.5z"/>
  <path fill="#ffffff" id="svg_6" d="m31.885,111.314l-24.385,0c-4.142,0 -7.5,-3.358 -7.5,-7.5s3.358,-7.5 7.5,-7.5l24.385,0c4.142,0 7.5,3.358 7.5,7.5s-3.358,7.5 -7.5,7.5z"/>
  <path fill="#ffffff" id="svg_7" d="m154.676,60.452c-1.919,0 -3.839,-0.732 -5.303,-2.197c-2.929,-2.929 -2.929,-7.678 0,-10.606l17.243,-17.242c2.929,-2.929 7.678,-2.93 10.606,0c2.929,2.929 2.929,7.678 0,10.606l-17.243,17.242c-1.464,1.465 -3.384,2.197 -5.303,2.197z"/>
  <path fill="#ffffff" id="svg_8" d="m35.709,179.419c-1.919,0 -3.839,-0.732 -5.303,-2.197c-2.929,-2.929 -2.929,-7.678 0,-10.606l17.243,-17.243c2.929,-2.929 7.678,-2.929 10.606,0c2.929,2.929 2.929,7.678 0,10.606l-17.243,17.243c-1.464,1.465 -3.383,2.197 -5.303,2.197z"/>
  <path fill="#ffffff" id="svg_9" d="m171.918,179.419c-1.919,0 -3.839,-0.732 -5.303,-2.197l-17.243,-17.243c-2.929,-2.929 -2.929,-7.678 0,-10.606c2.929,-2.929 7.678,-2.929 10.606,0l17.243,17.243c2.929,2.929 2.929,7.678 0,10.606c-1.464,1.465 -3.383,2.197 -5.303,2.197z"/>
  <path fill="#ffffff" id="svg_10" d="m52.952,60.452c-1.919,0 -3.839,-0.732 -5.303,-2.197l-17.243,-17.242c-2.929,-2.929 -2.929,-7.677 0,-10.606c2.929,-2.929 7.678,-2.93 10.606,0l17.243,17.242c2.929,2.929 2.929,7.677 0,10.606c-1.464,1.465 -3.383,2.197 -5.303,2.197z"/>
  <g id="svg_11"/>
  <g id="svg_12"/>
  <g id="svg_13"/>
  <g id="svg_14"/>
  <g id="svg_15"/>
  <g id="svg_16"/>
  <g id="svg_17"/>
  <g id="svg_18"/>
  <g id="svg_19"/>
  <g id="svg_20"/>
  <g id="svg_21"/>
  <g id="svg_22"/>
  <g id="svg_23"/>
  <g id="svg_24"/>
  <g id="svg_25"/>
 </g>
</svg>