<svg width="512" height="512" xmlns="http://www.w3.org/2000/svg">
 <title>ionicons-v5-p</title>

 <g>
  <title>Layer 1</title>
  <path fill="#048cc4" id="svg_1" d="m432,272a48.09,48.09 0 0 0 -45.25,32l-39.22,0l-28.35,-85.06a16,16 0 0 0 -30.56,0.66l-44.51,155.76l-52.33,-314a16,16 0 0 0 -31.3,-1.25l-60.97,243.89l-51.51,0a16,16 0 0 0 0,32l64,0a16,16 0 0 0 15.52,-12.12l45.34,-181.37l51.36,308.12a16,16 0 0 0 14.88,13.37c0.3,0 0.6,0 0.91,0a16,16 0 0 0 15.37,-11.6l49.8,-174.28l15.64,46.94a16,16 0 0 0 15.18,10.94l50.75,0a48,48 0 1 0 45.25,-64z"/>
 </g>
</svg>