<svg width="448" height="512" xmlns="http://www.w3.org/2000/svg">
 <!-- Font Awesome Pro 5.15.4 by @fontawesome - https://fontawesome.com License - https://fontawesome.com/license (Commercial License) -->

 <g>
  <title>Layer 1</title>
  <path d="m432,32l-120,0l-9.4,-18.7a24,24 0 0 0 -21.5,-13.3l-114.3,0a23.72,23.72 0 0 0 -21.4,13.3l-9.4,18.7l-120,0a16,16 0 0 0 -16,16l0,32a16,16 0 0 0 16,16l416,0a16,16 0 0 0 16,-16l0,-32a16,16 0 0 0 -16,-16zm-378.8,435a48,48 0 0 0 47.9,45l245.8,0a48,48 0 0 0 47.9,-45l21.2,-339l-384,0l21.2,339z" id="svg_1" fill="#661111"/>
 </g>
</svg>