<svg width="448" height="512" xmlns="http://www.w3.org/2000/svg">
 <!-- Font Awesome Pro 5.15.4 by @fontawesome - https://fontawesome.com License - https://fontawesome.com/license (Commercial License) -->

 <g>
  <title>Layer 1</title>
  <path d="m224,256c70.7,0 128,-57.3 128,-128s-57.3,-128 -128,-128s-128,57.3 -128,128s57.3,128 128,128zm89.6,32l-16.7,0c-22.2,10.2 -46.9,16 -72.9,16s-50.6,-5.8 -72.9,-16l-16.7,0c-74.2,0 -134.4,60.2 -134.4,134.4l0,41.6c0,26.5 21.5,48 48,48l352,0c26.5,0 48,-21.5 48,-48l0,-41.6c0,-74.2 -60.2,-134.4 -134.4,-134.4z" id="svg_1" fill="#000000"/>
 </g>
</svg>